<svg width="32" height="30" viewBox="0 0 32 30" fill="none" xmlns="http://www.w3.org/2000/svg">
<path fill-rule="evenodd" clip-rule="evenodd" d="M31.1425 5.75842C31.1437 7.09128 30.6826 8.3833 29.8378 9.41425C28.993 10.4452 27.8168 11.1513 26.5097 11.4121C25.2026 11.673 23.8455 11.4724 22.6697 10.8447C21.4939 10.217 20.5722 9.20088 20.0617 7.96965C19.5512 6.73843 19.4835 5.36827 19.8701 4.09271C20.2567 2.81715 21.0738 1.71515 22.1819 0.974537C23.2901 0.233929 24.6208 -0.0994442 25.9472 0.0312423C27.2737 0.161929 28.5138 0.748585 29.4561 1.69122C29.9906 2.22498 30.4144 2.85903 30.7032 3.55698C30.9921 4.25494 31.1403 5.00306 31.1393 5.75842H31.1425ZM28.3629 3.39882C28.6899 3.72588 28.8737 4.16948 28.8737 4.63202C28.8737 5.95276 27.8716 6.85378 26.6215 7.9778C26.2935 8.27266 25.9485 8.58286 25.6001 8.92002C25.5391 8.97411 25.4598 9.00291 25.3783 9.00053C25.2969 8.99815 25.2194 8.96478 25.1617 8.90722C24.8147 8.57096 24.4704 8.26138 24.1428 7.9668C22.9022 6.85128 21.9009 5.95093 21.9009 4.63202C21.9009 4.16948 22.0846 3.72588 22.4117 3.39882C22.7387 3.07176 23.1823 2.88802 23.6449 2.88802C24.4417 2.88802 24.8737 3.25282 25.2769 3.98242C25.2875 4.00252 25.3034 4.01934 25.3228 4.03108C25.3423 4.04282 25.3646 4.04902 25.3873 4.04902C25.41 4.04902 25.4323 4.04282 25.4517 4.03108C25.4712 4.01934 25.4871 4.00252 25.4977 3.98242C25.9009 3.25282 26.3329 2.88802 27.1297 2.88802C27.5922 2.88802 28.0358 3.07176 28.3629 3.39882Z" fill="#FFECEA"/>
<path d="M8.42568 11.7296L19.0177 7.61122C18.8957 7.1935 18.8153 6.76475 18.7777 6.33122L17.8369 6.01122L5.93288 10.6576L8.42568 11.7296Z" fill="#FFECEA"/>
<path d="M5.21608 11.3072L7.97448 12.5008V17.1696L5.21608 15.96V11.3072Z" fill="#FFECEA"/>
<path fill-rule="evenodd" clip-rule="evenodd" d="M25.3857 12.392C25.8765 12.3929 26.3659 12.3393 26.8449 12.232V23.1984C26.8457 23.2446 26.8336 23.2901 26.8098 23.3297C26.786 23.3693 26.7516 23.4014 26.7105 23.4224L14.2945 29.9952V14.856L22.0545 11.496C23.066 12.0844 24.2155 12.3936 25.3857 12.392ZM21.8753 21.56L25.0145 20.12C25.082 20.0861 25.1571 20.07 25.2325 20.0734C25.308 20.0767 25.3814 20.0994 25.4456 20.1392C25.5098 20.179 25.5627 20.2347 25.5993 20.3008C25.6359 20.3669 25.6549 20.4413 25.6545 20.5168V22.36C25.6546 22.4509 25.6268 22.5396 25.5747 22.6141C25.5225 22.6885 25.4487 22.7451 25.3633 22.776L22.2209 24.216C22.1531 24.2501 22.0778 24.2661 22.002 24.2626C21.9263 24.2591 21.8527 24.2362 21.7884 24.196C21.7241 24.1558 21.6712 24.0997 21.6349 24.0332C21.5985 23.9666 21.5799 23.8918 21.5809 23.816V21.976C21.5805 21.8846 21.6086 21.7954 21.6614 21.7208C21.7142 21.6463 21.789 21.59 21.8753 21.56Z" fill="#16519F"/>
<path d="M8.85768 17.6528C8.85756 17.7473 8.83395 17.8402 8.78898 17.9233C8.74401 18.0063 8.67908 18.0769 8.60005 18.1287C8.52102 18.1804 8.43037 18.2117 8.33625 18.2196C8.24213 18.2276 8.1475 18.2121 8.06088 18.1744L4.80008 16.7216C4.66311 16.6627 4.54643 16.5649 4.46452 16.4404C4.38261 16.3158 4.33906 16.1699 4.33928 16.0208V10.9232L0.860881 9.42242V23.1984C0.860037 23.2446 0.87219 23.2901 0.895954 23.3297C0.919718 23.3693 0.954136 23.4014 0.995281 23.4224L13.4113 29.9952V14.856L8.85768 12.8848V17.6528Z" fill="#16519F"/>
<path d="M16.5377 5.59522L13.9361 4.71842C13.8845 4.6993 13.8277 4.6993 13.7761 4.71842L1.64488 8.80162L4.80008 10.1616L16.5377 5.59522Z" fill="#16519F"/>
<path d="M20.6945 10.4496C20.1181 9.87276 19.6528 9.19482 19.3217 8.44962L9.57448 12.2352L13.8529 14.088L21.2129 10.9072C21.0241 10.7632 20.8577 10.6096 20.6945 10.4496Z" fill="#16519F"/>
<path d="M22.4545 23.1312L24.7457 22.0784V21.2048L22.4641 22.2544L22.4545 23.1312Z" fill="#081C38"/>
</svg>
