<svg width="25" height="24" viewBox="0 0 25 24" fill="none" xmlns="http://www.w3.org/2000/svg">
<path d="M22.333 9.25C22.1992 9.25 22.083 9.13386 22.083 9V7C22.083 5.60011 21.6278 4.40264 20.7791 3.55395C19.9304 2.70525 18.7329 2.25 17.333 2.25H7.33301C5.93312 2.25 4.73565 2.70525 3.88695 3.55395C3.03826 4.40264 2.58301 5.60011 2.58301 7V9C2.58301 9.13386 2.46687 9.25 2.33301 9.25C2.19915 9.25 2.08301 9.13386 2.08301 9V7C2.08301 5.39454 2.61988 4.09024 3.52156 3.18855C4.42324 2.28687 5.72755 1.75 7.33301 1.75H17.333C18.9385 1.75 20.2428 2.28687 21.1445 3.18855C22.0461 4.09024 22.583 5.39454 22.583 7V9C22.583 9.13386 22.4669 9.25 22.333 9.25Z" fill="#9F9FB1" stroke="#9F9FB1"/>
<path d="M17.333 22.25H7.33301C5.72755 22.25 4.42324 21.7131 3.52156 20.8114C2.61988 19.9098 2.08301 18.6055 2.08301 17V15C2.08301 14.8661 2.19915 14.75 2.33301 14.75C2.46687 14.75 2.58301 14.8661 2.58301 15V17C2.58301 18.3999 3.03826 19.5974 3.88695 20.4461C4.73565 21.2947 5.93312 21.75 7.33301 21.75H17.333C18.7329 21.75 19.9304 21.2947 20.7791 20.4461C21.6278 19.5974 22.083 18.3999 22.083 17V15C22.083 14.8661 22.1992 14.75 22.333 14.75C22.4669 14.75 22.583 14.8661 22.583 15V17C22.583 18.6055 22.0461 19.9098 21.1445 20.8114C20.2428 21.7131 18.9385 22.25 17.333 22.25Z" fill="#9F9FB1" stroke="#9F9FB1"/>
<path d="M16.7332 8.20996L12.9732 6.17996C12.5732 5.96996 12.1032 5.96996 11.7032 6.17996L7.93316 8.20996C7.66316 8.35996 7.49316 8.64996 7.49316 8.96996C7.49316 9.29996 7.66316 9.58996 7.93316 9.73996L11.6932 11.77C11.8932 11.88 12.1132 11.93 12.3332 11.93C12.5532 11.93 12.7732 11.88 12.9732 11.77L16.7332 9.73996C17.0032 9.58996 17.1732 9.29996 17.1732 8.96996C17.1732 8.64996 17.0032 8.35996 16.7332 8.20996Z" fill="#9F9FB1"/>
<path d="M11.073 12.4699L7.57301 10.7199C7.30301 10.5899 6.99301 10.5999 6.73301 10.7599C6.48301 10.9199 6.33301 11.1899 6.33301 11.4899V14.7999C6.33301 15.3699 6.65301 15.8899 7.16301 16.1399L10.663 17.8899C10.783 17.9499 10.913 17.9799 11.053 17.9799C11.213 17.9799 11.363 17.9399 11.503 17.8499C11.763 17.6899 11.913 17.4199 11.913 17.1199V13.8099C11.903 13.2399 11.593 12.7299 11.073 12.4699Z" fill="#9F9FB1"/>
<path d="M17.9229 10.7599C17.6629 10.5999 17.3529 10.5899 17.0829 10.7199L13.5829 12.4699C13.0729 12.7299 12.7529 13.2399 12.7529 13.8099V17.1199C12.7529 17.4199 12.9029 17.6899 13.1629 17.8499C13.3029 17.9399 13.4529 17.9799 13.6129 17.9799C13.7429 17.9799 13.8729 17.9499 14.0029 17.8899L17.5029 16.1399C18.0129 15.8799 18.3329 15.3699 18.3329 14.7999V11.4899C18.3329 11.1899 18.1829 10.9199 17.9229 10.7599Z" fill="#9F9FB1"/>
</svg>
