
<svg width="48" height="48" viewBox="0 0 48 48" fill="none" xmlns="http://www.w3.org/2000/svg">
<path d="M0 8C0 3.58172 3.58172 0 8 0H40C44.4183 0 48 3.58172 48 8V40C48 44.4183 44.4183 48 40 48H8C3.58172 48 0 44.4183 0 40V8Z" fill="#16519F"/>
<path d="M19.24 14H17.34C15.15 14 14 15.15 14 17.33V19.23C14 21.41 15.15 22.56 17.33 22.56H19.23C21.41 22.56 22.56 21.41 22.56 19.23V17.33C22.57 15.15 21.42 14 19.24 14Z" fill="white"/>
<path d="M30.6699 14H28.7699C26.5899 14 25.4399 15.15 25.4399 17.33V19.23C25.4399 21.41 26.5899 22.56 28.7699 22.56H30.6699C32.8499 22.56 33.9999 21.41 33.9999 19.23V17.33C33.9999 15.15 32.8499 14 30.6699 14Z" fill="white"/>
<path d="M30.6699 25.4299H28.7699C26.5899 25.4299 25.4399 26.5799 25.4399 28.7599V30.6599C25.4399 32.8399 26.5899 33.9899 28.7699 33.9899H30.6699C32.8499 33.9899 33.9999 32.8399 33.9999 30.6599V28.7599C33.9999 26.5799 32.8499 25.4299 30.6699 25.4299Z" fill="white"/>
<path d="M19.24 25.4299H17.34C15.15 25.4299 14 26.5799 14 28.7599V30.6599C14 32.8499 15.15 33.9999 17.33 33.9999H19.23C21.41 33.9999 22.56 32.8499 22.56 30.6699V28.7699C22.57 26.5799 21.42 25.4299 19.24 25.4299Z" fill="white"/>
</svg>
