<svg width="60" height="60" viewBox="0 0 60 60" fill="none" xmlns="http://www.w3.org/2000/svg">
<circle cx="30" cy="30" r="30" fill="#FF7E74"/>
<g clip-path="url(#clip0_389_1763)">
<path d="M42 27.5H41.949C41.438 21.351 36.279 16.5 30 16.5C23.721 16.5 18.562 21.351 18.051 27.5H18C16.897 27.5 16 28.397 16 29.5V33.5C16 34.603 16.897 35.5 18 35.5H20C21.103 35.5 22 34.603 22 33.5V29.5C22 28.414 21.13 27.533 20.05 27.505C20.551 22.456 24.821 18.5 30 18.5C35.179 18.5 39.449 22.456 39.95 27.505C38.871 27.532 38 28.414 38 29.5V33.5C38 34.603 38.897 35.5 40 35.5C40 38.257 37.757 40.5 35 40.5H34C33.939 40.5 33.885 40.524 33.827 40.535C33.423 39.356 32.315 38.5 31 38.5H29C27.346 38.5 26 39.846 26 41.5C26 43.154 27.346 44.5 29 44.5H31C32.315 44.5 33.422 43.644 33.827 42.465C33.885 42.476 33.939 42.5 34 42.5H35C38.86 42.5 42 39.36 42 35.5C43.103 35.5 44 34.603 44 33.5V29.5C44 28.397 43.103 27.5 42 27.5Z" fill="white"/>
</g>
<defs>
<clipPath id="clip0_389_1763">
<rect width="32" height="32" fill="white" transform="translate(14 14)"/>
</clipPath>
</defs>
</svg>
