<svg width="25" height="24" viewBox="0 0 25 24" fill="none" xmlns="http://www.w3.org/2000/svg">
<path d="M2.56723 18.33C2.56723 18.69 2.64723 19.06 2.81723 19.42C2.98723 19.78 3.20723 20.12 3.49723 20.44C3.98723 20.98 4.52723 21.37 5.13723 21.62C5.73723 21.87 6.38723 22 7.08723 22C8.10723 22 9.19723 21.76 10.3472 21.27C11.4972 20.78 12.6472 20.12 13.7872 19.29C14.9372 18.45 16.0272 17.52 17.0672 16.49C18.0972 15.45 19.0272 14.36 19.8572 13.22C20.6772 12.08 21.3372 10.94 21.8172 9.81C22.2972 8.67 22.5372 7.58 22.5372 6.54C22.5372 5.86 22.4172 5.21 22.1772 4.61C21.9372 4 21.5572 3.44 21.0272 2.94C20.3872 2.31 19.6872 2 18.9472 2C18.6672 2 18.3872 2.06 18.1372 2.18C17.8772 2.3 17.6472 2.48 17.4672 2.74L15.1472 6.01C14.9672 6.26 14.8372 6.49 14.7472 6.71C14.6572 6.92 14.6072 7.13 14.6072 7.32C14.6072 7.56 14.6772 7.8 14.8172 8.03C14.9472 8.26 15.1372 8.5 15.3772 8.74L16.1372 9.53C16.2472 9.64 16.2972 9.77 16.2972 9.93C16.2972 10.01 16.2872 10.08 16.2672 10.16C16.2372 10.24 16.2072 10.3 16.1872 10.36C16.0072 10.69 15.6972 11.12 15.2572 11.64C14.8072 12.16 14.3272 12.69 13.8072 13.22C13.2672 13.75 12.7472 14.24 12.2172 14.69C11.6972 15.13 11.2672 15.43 10.9272 15.61C10.8772 15.63 10.8172 15.66 10.7472 15.69C10.6672 15.72 10.5872 15.73 10.4972 15.73C10.3272 15.73 10.1972 15.67 10.0872 15.56L9.32723 14.81C9.07723 14.56 8.83723 14.37 8.60723 14.25C8.37723 14.11 8.14723 14.04 7.89723 14.04C7.70723 14.04 7.50723 14.08 7.28723 14.17C7.06723 14.26 6.83723 14.39 6.58723 14.56L3.27723 16.91C3.01723 17.09 2.83723 17.3 2.72723 17.55C2.62723 17.8 2.56723 18.05 2.56723 18.33Z" stroke="#16519F" stroke-width="1.5" stroke-miterlimit="10"/>
</svg>
