<svg width="27" height="29" viewBox="0 0 27 29" fill="none" xmlns="http://www.w3.org/2000/svg">
<path d="M14.8064 6.23147L16.2973 9.58494L19.9473 9.96666C20.3362 10.0075 20.6461 10.2582 20.7669 10.6302C20.8877 11.0021 20.7845 11.3871 20.4936 11.6486L17.7648 14.1028L18.1746 16.0248L15.2939 17.6878L13.9218 16.8947L12.5497 17.6878L9.66909 16.0248L10.0786 14.1028L7.34974 11.6486C7.05913 11.3871 6.95562 11.0021 7.07643 10.6302C7.19725 10.2582 7.50713 10.0075 7.89603 9.96666L11.546 9.58494L13.0369 6.23147C13.1959 5.87425 13.53 5.65678 13.9212 5.65678C14.3124 5.65678 14.6474 5.87392 14.8064 6.23147Z" fill="#FF7E74"/>
<path d="M26.904 16.6387L22.5765 14.1404L18.249 16.639L13.9215 19.1373L18.249 21.6349L26.904 16.6387Z" fill="#16519F"/>
<path d="M21.689 6.71049C21.5535 6.78919 21.3798 6.74282 21.3011 6.60698C21.2224 6.47147 21.2688 6.29776 21.4046 6.21907L22.6745 5.486C22.81 5.40731 22.9837 5.45368 23.0624 5.58951C23.1411 5.72502 23.0947 5.89874 22.9589 5.97743L21.689 6.71049Z" fill="#FF7E74"/>
<path d="M17.9186 4.59556C17.8399 4.73107 17.6661 4.77743 17.5306 4.69907C17.3951 4.62037 17.3488 4.44666 17.4271 4.31115L18.1602 3.04127C18.2389 2.90576 18.4126 2.85939 18.5481 2.93776C18.6836 3.01645 18.73 3.19017 18.6516 3.32568L17.9186 4.59556Z" fill="#FF7E74"/>
<path d="M14.2066 2.70952C14.2066 2.86658 14.0792 2.99392 13.9221 2.99392C13.7651 2.99392 13.6377 2.86658 13.6377 2.70952V1.24339C13.6377 1.08633 13.7651 0.958984 13.9221 0.958984C14.0792 0.958984 14.2066 1.08633 14.2066 1.24339V2.70952Z" fill="#FF7E74"/>
<path d="M10.4168 4.3118C10.4949 4.44731 10.4482 4.6207 10.3124 4.69874C10.1768 4.77678 10.0035 4.73009 9.92541 4.59425L9.19235 3.32437C9.11431 3.18886 9.16133 3.01547 9.29684 2.93743C9.43235 2.85939 9.60574 2.90641 9.68378 3.04192L10.4168 4.3118Z" fill="#FF7E74"/>
<path d="M6.4397 6.21939C6.57521 6.29809 6.62158 6.4718 6.54321 6.60731C6.46452 6.74282 6.2908 6.78919 6.15529 6.71082L4.88541 5.97776C4.7499 5.89907 4.70354 5.72535 4.7819 5.58984C4.8606 5.45433 5.03431 5.40796 5.16982 5.48633L6.4397 6.21939Z" fill="#FF7E74"/>
<path d="M22.5765 14.1404L26.904 11.6421L18.2493 6.64519L16.1514 7.85662L16.6833 9.05335L20.0061 9.40078C20.6186 9.46478 21.1176 9.8687 21.3079 10.4545C21.498 11.0396 21.3315 11.6607 20.874 12.0721L20.1386 12.7334L22.5765 14.1404Z" fill="#16519F"/>
<path d="M5.2668 14.1404L7.70435 12.733L6.96901 12.0718C6.51154 11.6604 6.34501 11.0393 6.53505 10.4542C6.72541 9.86837 7.22435 9.46478 7.83692 9.40045L11.1597 9.05303L11.6916 7.85629L9.59366 6.64486L0.938965 11.6418L5.2668 14.1404Z" fill="#16519F"/>
<path d="M9.59398 21.6356L13.9215 19.1373L9.59398 16.6383L5.2668 14.1404L0.939291 16.6387L9.59398 21.6356Z" fill="#16519F"/>
<path d="M13.6377 28.9665L9.59496 26.6325L5.26745 24.1342V19.7946L9.59496 22.2929L13.6377 19.9588V28.9665Z" fill="#16519F"/>
<path d="M14.2062 28.9665V19.9585L18.249 22.2925L22.5765 19.7943V24.1338L18.249 26.6321L14.2062 28.9665Z" fill="#16519F"/>
</svg>
