<svg width="85" height="85" viewBox="0 0 85 85" fill="none" xmlns="http://www.w3.org/2000/svg">
<path d="M63.4583 40.8385V30.3177C63.467 29.6646 63.3458 29.0162 63.1019 28.4103C62.858 27.8043 62.4961 27.2529 62.0373 26.7879C61.5784 26.323 61.0318 25.9538 60.4292 25.7019C59.8265 25.45 59.1798 25.3203 58.5266 25.3203H52.6086C51.3007 25.3203 50.0463 25.8399 49.1214 26.7648C48.1966 27.6896 47.677 28.944 47.677 30.252V40.8385C47.677 40.9083 47.7047 40.9752 47.754 41.0245C47.8034 41.0739 47.8703 41.1016 47.94 41.1016H63.1952C63.265 41.1016 63.3319 41.0739 63.3812 41.0245C63.4305 40.9752 63.4583 40.9083 63.4583 40.8385Z" fill="#FF7E74"/>
<path d="M55.5675 25.3201C58.4728 25.3201 60.828 22.965 60.828 20.0597C60.828 17.1545 58.4728 14.7993 55.5675 14.7993C52.6623 14.7993 50.3071 17.1545 50.3071 20.0597C50.3071 22.965 52.6623 25.3201 55.5675 25.3201Z" fill="#FF7E74"/>
<path d="M66.0884 24.0051C66.8723 23.9159 67.5889 23.52 68.0818 22.9039C68.5746 22.2878 68.8036 21.5017 68.7186 20.7174C68.7597 20.0764 68.609 19.4377 68.2858 18.8826C67.9626 18.3275 67.4815 17.8812 66.9037 17.6006C66.2992 15.0132 64.8633 12.6953 62.8159 11.0018C60.7684 9.30825 58.2224 8.33248 55.5675 8.22388C53.1708 8.28416 50.8489 9.07088 48.9091 10.4799C46.9693 11.8889 45.5032 13.8538 44.7048 16.1145C43.3897 16.3381 42.4165 17.903 42.4165 20.0598C42.4165 22.2166 43.5212 24.0051 45.0467 24.0051C46.5722 24.0051 47.6769 22.3481 47.6769 20.0598C47.6986 19.1447 47.4858 18.2393 47.0588 17.4296C47.6195 15.5862 48.7397 13.9628 50.2643 12.7846C51.7889 11.6064 53.6423 10.9317 55.5675 10.8541C57.6372 10.9603 59.6155 11.7399 61.2014 13.074C62.7872 14.4082 63.8937 16.224 64.3524 18.245C63.7547 18.9277 63.4355 19.8102 63.4582 20.7174C63.3732 21.5017 63.6021 22.2878 64.095 22.9039C64.5878 23.52 65.3045 23.9159 66.0884 24.0051Z" fill="#FF7E74"/>
<path d="M1.9904 47.6772H9.30238C9.36781 47.6775 9.43102 47.6535 9.47965 47.6097C9.52829 47.5659 9.55886 47.5056 9.5654 47.4405L10.8805 37.4457C10.8842 37.409 10.8801 37.372 10.8686 37.337C10.857 37.3019 10.8382 37.2698 10.8134 37.2425C10.7886 37.2152 10.7584 37.1934 10.7246 37.1786C10.6909 37.1638 10.6544 37.1562 10.6175 37.1564H4.4891C4.42937 37.1545 4.37078 37.173 4.32297 37.2089C4.27516 37.2447 4.24099 37.2958 4.22608 37.3536L1.72738 47.3484C1.71714 47.388 1.71627 47.4294 1.72481 47.4694C1.73336 47.5093 1.7511 47.5467 1.77663 47.5786C1.80216 47.6105 1.83477 47.6361 1.87187 47.6532C1.90898 47.6703 1.94956 47.6785 1.9904 47.6772Z" fill="#16519F"/>
<path d="M18.7447 37.4193C18.7447 37.3495 18.7169 37.2826 18.6676 37.2333C18.6183 37.184 18.5514 37.1563 18.4816 37.1563H12.4059C12.3404 37.1559 12.2772 37.18 12.2286 37.2238C12.18 37.2675 12.1494 37.3279 12.1428 37.393L10.8277 47.3878C10.824 47.4244 10.8281 47.4615 10.8397 47.4965C10.8512 47.5315 10.87 47.5637 10.8948 47.591C10.9196 47.6183 10.9499 47.64 10.9836 47.6549C11.0174 47.6697 11.0539 47.6773 11.0908 47.6771H18.4816C18.5514 47.6771 18.6183 47.6494 18.6676 47.6C18.7169 47.5507 18.7447 47.4838 18.7447 47.4141V37.4193Z" fill="#16519F"/>
<path d="M37.1562 37.4456L38.4056 47.4404C38.4121 47.5055 38.4427 47.5659 38.4913 47.6096C38.5399 47.6534 38.6031 47.6775 38.6686 47.6771H45.9806C46.0214 47.6784 46.062 47.6702 46.0991 47.6531C46.1362 47.636 46.1688 47.6105 46.1943 47.5786C46.2199 47.5467 46.2376 47.5092 46.2461 47.4693C46.2547 47.4293 46.2538 47.3879 46.2436 47.3484L43.7317 37.3536C43.7168 37.2957 43.6826 37.2446 43.6348 37.2088C43.587 37.1729 43.5284 37.1544 43.4687 37.1563H37.4587C37.4187 37.15 37.3777 37.153 37.3391 37.1651C37.3004 37.1772 37.265 37.198 37.2358 37.226C37.2065 37.254 37.1841 37.2884 37.1703 37.3265C37.1565 37.3646 37.1517 37.4054 37.1562 37.4456Z" fill="#16519F"/>
<path d="M36.8538 47.6771C36.8906 47.6773 36.9271 47.6697 36.9609 47.6549C36.9947 47.64 37.0249 47.6183 37.0497 47.591C37.0745 47.5637 37.0933 47.5315 37.1049 47.4965C37.1164 47.4615 37.1205 47.4244 37.1168 47.3878L35.8411 37.393C35.8346 37.3279 35.804 37.2675 35.7554 37.2238C35.7068 37.18 35.6436 37.1559 35.5781 37.1563H29.5286C29.4589 37.1563 29.392 37.184 29.3427 37.2333C29.2933 37.2826 29.2656 37.3495 29.2656 37.4193V47.4141C29.2656 47.4838 29.2933 47.5507 29.3427 47.6C29.392 47.6494 29.4589 47.6771 29.5286 47.6771H36.8538Z" fill="#16519F"/>
<path d="M27.6874 37.1562H20.3228C20.1776 37.1562 20.0598 37.274 20.0598 37.4193V47.4141C20.0598 47.5593 20.1776 47.6771 20.3228 47.6771H27.6874C27.8327 47.6771 27.9504 47.5593 27.9504 47.4141V37.4193C27.9504 37.274 27.8327 37.1562 27.6874 37.1562Z" fill="#16519F"/>
<path d="M9.53906 50.3073V48.9922H1.64844V50.3073C1.64844 51.3537 2.0641 52.3572 2.80399 53.097C3.54388 53.8369 4.54739 54.2526 5.59375 54.2526C6.64011 54.2526 7.64362 53.8369 8.38351 53.097C9.1234 52.3572 9.53906 51.3537 9.53906 50.3073Z" fill="#16519F"/>
<path d="M10.854 50.3073C10.854 51.3537 11.2697 52.3572 12.0096 53.097C12.7494 53.8369 13.753 54.2526 14.7993 54.2526C15.8457 54.2526 16.8492 53.8369 17.5891 53.097C18.329 52.3572 18.7446 51.3537 18.7446 50.3073V48.9922H10.854V50.3073Z" fill="#16519F"/>
<path d="M38.4712 48.9922V50.3073C38.4712 51.3537 38.8869 52.3572 39.6267 53.097C40.3666 53.8369 41.3701 54.2526 42.4165 54.2526C43.4629 54.2526 44.4664 53.8369 45.2063 53.097C45.9461 52.3572 46.3618 51.3537 46.3618 50.3073V48.9922H38.4712Z" fill="#16519F"/>
<path d="M29.2656 50.3073C29.2656 51.3537 29.6813 52.3572 30.4212 53.097C31.1611 53.8369 32.1646 54.2526 33.2109 54.2526C34.2573 54.2526 35.2608 53.8369 36.0007 53.097C36.7406 52.3572 37.1562 51.3537 37.1562 50.3073V48.9922H29.2656V50.3073Z" fill="#16519F"/>
<path d="M20.0598 50.3073C20.0598 51.3537 20.4755 52.3572 21.2154 53.097C21.9553 53.8369 22.9588 54.2526 24.0051 54.2526C25.0515 54.2526 26.055 53.8369 26.7949 53.097C27.5348 52.3572 27.9504 51.3537 27.9504 50.3073V48.9922H20.0598V50.3073Z" fill="#16519F"/>
<path d="M43.7316 83.1848C44.0804 83.1848 44.4149 83.0463 44.6615 82.7996C44.9082 82.553 45.0467 82.2185 45.0467 81.8697C45.0467 81.5209 44.9082 81.1864 44.6615 80.9398C44.4149 80.6932 44.0804 80.5546 43.7316 80.5546H42.4165V55.5676C41.472 55.5629 40.5462 55.304 39.7363 54.818C38.9264 54.3321 38.2623 53.6371 37.8136 52.8059C37.5758 53.2511 37.2795 53.6624 36.9325 54.029C36.3528 54.6036 35.6473 55.0354 34.8718 55.2903C34.0964 55.5452 33.2722 55.6161 32.4646 55.4975C31.657 55.3788 30.8881 55.0739 30.2187 54.6067C29.5493 54.1395 28.9979 53.523 28.6079 52.8059C28.3701 53.2511 28.0738 53.6624 27.7268 54.029C27.1471 54.6036 26.4416 55.0354 25.6661 55.2903C24.8906 55.5452 24.0665 55.6161 23.2589 55.4975C22.4513 55.3788 21.6824 55.0739 21.013 54.6067C20.3436 54.1395 19.7921 53.523 19.4022 52.8059C19.0122 53.523 18.4608 54.1395 17.7914 54.6067C17.122 55.0739 16.3531 55.3788 15.5455 55.4975C14.7379 55.6161 13.9137 55.5452 13.1383 55.2903C12.3628 55.0354 11.6573 54.6036 11.0776 54.029C10.7306 53.6624 10.4343 53.2511 10.1965 52.8059C9.74782 53.6371 9.08369 54.3321 8.27379 54.818C7.46388 55.304 6.53808 55.5629 5.59359 55.5676V80.5546H4.27848C3.9297 80.5546 3.59519 80.6932 3.34856 80.9398C3.10193 81.1864 2.96338 81.5209 2.96338 81.8697C2.96338 82.2185 3.10193 82.553 3.34856 82.7996C3.59519 83.0463 3.9297 83.1848 4.27848 83.1848H43.7316ZM33.2108 63.7213V80.2916C33.2108 80.3613 33.1831 80.4282 33.1337 80.4776C33.0844 80.5269 33.0175 80.5546 32.9478 80.5546H25.3201V63.4583H32.9478C33.0175 63.4583 33.0844 63.486 33.1337 63.5353C33.1831 63.5846 33.2108 63.6515 33.2108 63.7213ZM17.4295 60.1705H30.5806C30.755 60.1705 30.9222 60.2398 31.0455 60.3631C31.1688 60.4864 31.2381 60.6536 31.2381 60.828C31.2381 61.0024 31.1688 61.1697 31.0455 61.293C30.9222 61.4163 30.755 61.4856 30.5806 61.4856H17.4295C17.2551 61.4856 17.0879 61.4163 16.9646 61.293C16.8412 61.1697 16.772 61.0024 16.772 60.828C16.772 60.6536 16.8412 60.4864 16.9646 60.3631C17.0879 60.2398 17.2551 60.1705 17.4295 60.1705ZM14.7993 63.7213C14.7993 63.6515 14.827 63.5846 14.8764 63.5353C14.9257 63.486 14.9926 63.4583 15.0623 63.4583H22.6899V80.5546H15.0623C14.9926 80.5546 14.9257 80.5269 14.8764 80.4776C14.827 80.4282 14.7993 80.3613 14.7993 80.2916V63.7213Z" fill="#16519F"/>
<path d="M20.0597 71.349C20.786 71.349 21.3748 70.7602 21.3748 70.0339C21.3748 69.3075 20.786 68.7188 20.0597 68.7188C19.3334 68.7188 18.7446 69.3075 18.7446 70.0339C18.7446 70.7602 19.3334 71.349 20.0597 71.349Z" fill="#16519F"/>
<path d="M27.9504 71.349C28.6767 71.349 29.2655 70.7602 29.2655 70.0339C29.2655 69.3075 28.6767 68.7188 27.9504 68.7188C27.224 68.7188 26.6353 69.3075 26.6353 70.0339C26.6353 70.7602 27.224 71.349 27.9504 71.349Z" fill="#16519F"/>
<path d="M49.8732 1.97707C42.5738 3.12266 35.9852 7.00658 31.4483 12.8384C26.9113 18.6702 24.767 26.0116 25.4517 33.3686C25.4711 33.5444 25.5256 33.7144 25.6122 33.8686C25.6987 34.0227 25.8154 34.1579 25.9554 34.2659C26.0953 34.3739 26.2556 34.4527 26.4267 34.4973C26.5977 34.542 26.7761 34.5517 26.951 34.5259C27.2911 34.4769 27.5985 34.2966 27.8074 34.0238C28.0163 33.751 28.1101 33.4073 28.0688 33.0661C27.5813 27.9786 28.5866 22.8592 30.9619 18.3338C33.3371 13.8084 36.9793 10.0731 41.4433 7.58435C45.9073 5.09564 50.9997 3.96141 56.0979 4.3203C61.1962 4.67919 66.0794 6.51565 70.1507 9.60519C74.222 12.6947 77.305 16.9035 79.0229 21.717C80.7407 26.5306 81.0189 31.7403 79.8235 36.7094C78.6281 41.6785 76.0108 46.1917 72.2917 49.6972C68.5726 53.2028 63.9127 55.5489 58.8817 56.4487L58.3819 53.253C58.3761 53.2086 58.3591 53.1663 58.3324 53.1304C58.3057 53.0944 58.2702 53.0658 58.2294 53.0474C58.1886 53.0289 58.1437 53.0212 58.099 53.025C58.0544 53.0287 58.0114 53.0438 57.9743 53.0689L49.6102 58.9868C49.5678 59.0139 49.5341 59.0526 49.513 59.0983C49.4919 59.144 49.4844 59.1948 49.4914 59.2446C49.4983 59.2945 49.5193 59.3413 49.5521 59.3795C49.5848 59.4177 49.6278 59.4458 49.676 59.4603L59.434 62.6034C59.4765 62.6139 59.5208 62.6142 59.5634 62.6043C59.606 62.5943 59.6456 62.5744 59.679 62.5462C59.7124 62.5179 59.7386 62.4822 59.7554 62.4418C59.7723 62.4014 59.7793 62.3577 59.776 62.3141L59.2762 59.0658C66.7525 57.717 73.3984 53.4819 77.7786 47.2748C82.1589 41.0678 83.9221 33.387 82.6874 25.891C81.4528 18.395 77.3194 11.6854 71.1798 7.2111C65.0402 2.73678 57.3871 0.856774 49.8732 1.97707Z" fill="#16519F"/>
</svg>
