<svg width="86" height="86" viewBox="0 0 86 86" fill="none" xmlns="http://www.w3.org/2000/svg">
<path fill-rule="evenodd" clip-rule="evenodd" d="M73.8261 42.3531V60.0913C73.8261 60.8335 72.9418 61.2845 72.3417 60.7944L69.2522 58.2696L66.0278 62.737C65.4845 63.5644 64.3374 63.1382 64.3374 62.2718V44.8672L53.1192 47.843V85.9858L85.0474 77.5163V39.3772L73.8261 42.3531ZM56.27 72.9458C55.1194 73.269 55.6095 75.0161 56.76 74.693L63.8836 72.6901C65.0341 72.367 64.5441 70.6198 63.3935 70.943L56.27 72.9458ZM55.6059 77.2568C55.6059 76.8165 55.9149 76.4507 56.3268 76.3655L66.6178 73.4713C67.2001 73.308 67.7719 73.7483 67.7719 74.3449H67.7754L67.779 78.5424C67.779 78.9827 67.47 79.3485 67.0581 79.4337L56.7635 82.3279C56.1812 82.4912 55.6095 82.0509 55.6095 81.4543H55.6059V77.2568Z" fill="#16519F"/>
<path fill-rule="evenodd" clip-rule="evenodd" d="M19.3846 66.3025V66.3949L19.3065 77.453L51.3019 85.9829L51.2984 47.8474L19.5729 39.4312L19.4948 50.3121C19.4983 50.3619 19.4983 50.4116 19.4948 50.4613L19.4593 55.3654C19.4628 55.4115 19.4628 55.4577 19.4593 55.5039L19.4202 61.2354C19.4238 61.2851 19.4238 61.3348 19.4202 61.3846L19.3846 66.3025ZM24.3088 62.7122C24.3088 56.6432 29.2308 51.7213 35.2997 51.7213C41.3687 51.7213 46.2871 56.6433 46.2906 62.7122C46.2906 68.7776 41.3687 73.6995 35.2997 73.6995C29.2307 73.6995 24.3088 68.7812 24.3088 62.7122Z" fill="#16519F"/>
<path fill-rule="evenodd" clip-rule="evenodd" d="M41.7841 56.2277C38.2045 52.6446 32.395 52.6446 28.815 56.2277C25.2319 59.8107 25.2319 65.6167 28.815 69.1967C32.3945 72.7763 38.2004 72.7763 41.7841 69.1967C45.3636 65.6137 45.3636 59.8077 41.7841 56.2277ZM30.3579 60.9013C29.6192 61.6186 29.5944 62.8012 30.3046 63.5469L32.9645 66.3416C33.6888 67.1015 34.9033 67.1228 35.6562 66.37L40.2762 61.6896C40.6419 61.3203 40.8195 60.8374 40.816 60.358C40.8017 58.6854 38.767 57.8686 37.5986 59.0547L34.3493 62.3466L33.0177 60.9439C32.2861 60.191 31.0645 60.1946 30.3579 60.9013Z" fill="#16519F"/>
<path d="M72.0088 42.5343L41.9024 33.3934L36.7675 34.6754L65.4393 43.0809C65.8477 43.1697 66.1567 43.5319 66.1567 43.9687V59.4623L68.3477 56.4262C68.6532 56.0036 69.2533 55.9255 69.6581 56.2557L69.6617 56.2522L72.0125 58.1733L72.0088 42.5343Z" fill="#16519F"/>
<path d="M61.3724 43.7807L52.207 46.2132L22.3133 38.2835L33.2824 35.5456L61.3724 43.7807Z" fill="#16519F"/>
<path d="M45.3251 32.5379L51.355 31.0323L82.2077 38.2517L72.5668 40.8086L45.3251 32.5379Z" fill="#16519F"/>
<path d="M65.9541 75.5452V77.857L57.4207 80.2576L57.4242 77.9422L65.9541 75.5452Z" fill="#16519F"/>
<path d="M17.7191 45.2293L0.950928 41.4793L2.44238 45.3323L17.6906 49.2137L17.7191 45.2293Z" fill="#16519F"/>
<path d="M17.641 56.1566L4.31008 53.2482L5.80508 57.1083L17.616 60.1303L17.641 56.1566Z" fill="#16519F"/>
<path d="M17.5664 67.0802L7.66187 65.0064L9.16396 68.8878L17.5375 71.0504L17.5664 67.0802Z" fill="#16519F"/>
<path fill-rule="evenodd" clip-rule="evenodd" d="M39.2181 6.89517C35.1166 2.79363 28.4654 2.79363 24.3636 6.89517C20.262 10.9967 20.262 17.6479 24.3636 21.7497C28.4651 25.8515 35.1163 25.8513 39.2181 21.7497C43.3197 17.6482 43.3197 10.997 39.2181 6.89517ZM34.3531 13.2302L34.0121 12.6443C32.5385 10.6912 29.4632 11.4688 29.0442 13.8374C28.8915 14.7216 29.172 15.6343 29.8183 16.2841L28.3872 19.2103C28.1671 19.6577 28.3553 20.2011 28.8027 20.4212C29.2501 20.6414 29.7934 20.4532 30.0136 20.0057L31.4447 17.0832C32.8225 17.2572 34.1222 16.3837 34.4809 15.0413L39.4809 14.6897C40.6741 14.6045 40.5462 12.7934 39.3531 12.8786L34.3531 13.2302Z" fill="#FF7E74"/>
<path fill-rule="evenodd" clip-rule="evenodd" d="M41.3737 4.73963C36.0825 -0.551555 27.4991 -0.551555 22.2082 4.73963C16.917 10.0308 16.917 18.6142 22.2082 23.9051C27.4994 29.1963 36.0828 29.1963 41.3737 23.9051C46.6649 18.6139 46.6649 10.0305 41.3737 4.73963ZM19.4664 14.3244C19.4664 7.52017 24.9851 2.00172 31.7891 2.00172C38.5934 2.00172 44.1119 7.5169 44.1119 14.3244C44.1119 21.1287 38.5934 26.6472 31.7891 26.6472C24.9849 26.6472 19.4664 21.1284 19.4664 14.3244Z" fill="#FF7E74"/>
<path d="M32.7444 14.4908C32.9646 13.2302 31.0576 12.8999 30.8374 14.1535C30.6172 15.4141 32.5242 15.7444 32.7444 14.4908Z" fill="#FF7E74"/>
<path d="M2.10496 8.24445C0.90823 8.24445 0.90823 6.42626 2.10496 6.42626H14.5659C15.7626 6.42626 15.7626 8.24445 14.5659 8.24445H2.10496Z" fill="#FF7E74"/>
<path d="M6.29887 13.6386C5.10214 13.6386 5.10214 11.8204 6.29887 11.8204H12.9608C14.1575 11.8204 14.1575 13.6386 12.9608 13.6386H6.29887Z" fill="#FF7E74"/>
<path d="M10.4928 19.0328C9.29605 19.0328 9.29605 17.2146 10.4928 17.2146H13.355C14.5517 17.2146 14.5517 19.0328 13.355 19.0328H10.4928Z" fill="#FF7E74"/>
<path d="M14.6867 24.427C13.49 24.427 13.49 22.6088 14.6867 22.6088H15.9473C17.144 22.6088 17.144 24.427 15.9473 24.427H14.6867Z" fill="#FF7E74"/>
</svg>
