<svg width="87" height="86" viewBox="0 0 87 86" fill="none" xmlns="http://www.w3.org/2000/svg">
<path d="M86.0979 25.2109L83.3303 29.6881L85.1058 34.6412L79.9953 33.3929L75.8329 36.6108L75.4412 31.3648L71.0921 28.3994L75.9611 26.4043L77.4364 21.3523L80.8373 25.3683L86.0979 25.2109Z" fill="#FF7E74"/>
<path d="M43.2989 24.5774L67.4425 38.5178L43.2989 52.4583L19.1554 38.5178L43.2989 24.5774Z" fill="#16519F"/>
<path fill-rule="evenodd" clip-rule="evenodd" d="M69.9391 50.6895L46.0121 64.5054L44.5477 62.1258V85.3762L69.9396 70.7141L69.9391 50.6895Z" fill="#16519F"/>
<path d="M42.0506 62.1259L40.5863 64.5054L16.6593 50.6896V70.7142L42.0511 85.3764L42.0506 62.1259Z" fill="#16519F"/>
<path d="M73.5048 45.7515L69.9391 39.9564L43.2989 55.3355L46.8646 61.1306L73.5048 45.7515Z" fill="#16519F"/>
<path fill-rule="evenodd" clip-rule="evenodd" d="M0.5 25.2109L5.76065 25.3683L9.16157 21.3523L10.6369 26.4043L15.5058 28.3994L11.1567 31.3647L10.765 36.6108L6.60264 33.3929L1.49212 34.6412L3.2676 29.688L0.5 25.2109ZM18.5884 7.12246L18.7458 12.3831L14.7299 15.784L19.7818 17.2593L21.777 22.1282L24.7423 17.7792L29.9883 17.3875L26.7704 13.2251L28.0187 8.11458L23.0656 9.89006L18.5884 7.12246ZM68.0095 7.12246L63.5323 9.89003L58.5791 8.11455L59.8274 13.2251L56.6096 17.3874L61.8556 17.7792L64.8209 22.1282L66.8161 17.2593L71.868 15.784L67.852 12.3831L68.0095 7.12246ZM43.2989 0.5L45.792 5.13461L50.9684 6.07179L47.3296 9.87541L48.0361 15.0885L43.2953 12.8041L38.5545 15.0885L39.2611 9.87541L35.6222 6.07179L40.7986 5.13461L43.2917 0.5H43.2989Z" fill="#FF7E74"/>
<path d="M43.2989 55.3355L16.6588 39.9564L13.0931 45.7515L39.7333 61.1306L43.2989 55.3355Z" fill="#16519F"/>
</svg>
