

<svg width="92" height="64" viewBox="0 0 92 64" fill="none" xmlns="http://www.w3.org/2000/svg">
<path d="M70.1173 27.001L61.8123 57.9752C61.5282 59.0294 60.4465 59.6527 59.3923 59.3685L43.6898 55.1519C43.6257 54.8127 44.964 53.1902 44.964 51.421C44.964 50.9902 44.909 50.5777 44.8173 50.1744C45.624 49.2394 46.1098 48.0202 46.1098 46.7002C46.1098 43.7577 43.7173 41.3652 40.7748 41.3652H33.3865C33.4782 40.2377 33.5332 39.0827 33.5148 37.9277L38.7032 18.5769C38.8407 18.0635 39.1432 17.6694 39.6015 17.3944L45.2023 14.0577C45.404 15.341 45.789 16.5877 46.3482 17.761C47.8423 20.9052 50.4915 23.2885 53.874 24.196C56.239 24.8377 58.6957 23.4077 59.3282 21.0427C59.9607 18.6777 58.5398 16.221 56.1748 15.5885C55.3407 15.3685 54.7448 14.6994 54.3873 13.9477C53.8282 12.7652 53.7915 11.3719 54.1307 10.1252C54.2682 9.62104 54.479 8.97021 54.7815 8.34688L57.1923 6.91688C57.669 6.63271 58.1732 6.55938 58.7048 6.70604C59.2365 6.85271 59.649 7.16438 59.9148 7.65021L69.9157 25.516C70.1907 25.9927 70.2548 26.4877 70.1173 27.001Z" fill="#16519F"/>
<path d="M90.3757 55.326L66.9915 61.5869C66.2857 61.7794 65.5982 61.596 65.0848 61.0735C64.5715 60.5602 64.3882 59.8727 64.5715 59.1669L73.509 25.8185L64.7182 10.116L82.7032 20.8135C83.079 21.0335 83.3265 21.3635 83.4365 21.7852L91.7782 52.906C92.044 53.9602 91.4207 55.0419 90.3757 55.326Z" fill="#FF7E74"/>
<path d="M54.6532 21.336C55.4415 21.5469 56.2573 21.0794 56.4682 20.2819C56.679 19.4844 56.2115 18.6777 55.414 18.4577C53.764 18.0177 52.4715 16.8169 51.7198 15.2219C50.9223 13.5535 50.7115 11.4635 51.2798 9.36438C52.3065 5.54188 54.2865 3.75438 56.3857 3.37854C57.5407 3.16771 58.7415 3.36937 59.8507 3.87354C60.9251 4.36568 62.3087 5.21947 63.7003 6.07822C64.1491 6.35513 64.5987 6.63256 65.039 6.89854C65.3232 7.06354 65.6532 7.02688 65.8915 6.80688C66.1298 6.58688 66.194 6.24771 66.0473 5.96354C65.7998 5.47771 65.5157 5.01938 65.204 4.57938C64.1315 3.09438 62.6923 1.92104 61.079 1.17854C59.4382 0.426876 57.6232 0.142709 55.8632 0.463543C52.7098 1.03188 49.7857 3.47021 48.4107 8.59438C47.659 11.3994 47.9523 14.2135 49.034 16.4869C50.1615 18.8519 52.1232 20.6577 54.6532 21.336Z" fill="#FF7E74"/>
<path d="M40.784 44.3444H30.0407C32.809 26.4694 23.3215 27.0194 23.9632 34.1327C24.2748 38.5144 21.3598 42.5477 17.9315 44.7294L17.574 44.8577V62.0085C22.6798 62.9344 27.254 63.2277 32.8823 63.2277H36.7323C38.0248 63.2277 39.0973 62.1644 39.0973 60.8627C39.0973 59.561 38.034 58.4977 36.7323 58.4977H38.4465C39.7482 58.4977 40.8115 57.4344 40.8115 56.1327C40.8115 54.831 39.7482 53.7677 38.4465 53.7677H39.629C40.9307 53.7677 41.994 52.7044 41.994 51.4027C41.994 50.101 40.9307 49.0377 39.629 49.0377H40.7748C42.0765 49.0377 43.1398 47.9744 43.1398 46.6727C43.1398 45.4077 42.0765 44.3444 40.784 44.3444Z" fill="#16519F"/>
<path d="M12.6332 44.0694H2.13734C1.05567 44.0694 0.166504 44.9585 0.166504 46.0402V61.2569C0.166504 62.3385 1.05567 63.2277 2.13734 63.2277H12.6332C13.7148 63.2277 14.604 62.3385 14.604 61.2569V46.0402C14.604 44.9585 13.7148 44.0694 12.6332 44.0694Z" fill="#16519F"/>
</svg>
