<svg width="62" height="85" viewBox="0 0 62 85" fill="none" xmlns="http://www.w3.org/2000/svg">
<path d="M59.7949 16.6298L50.7274 21.8654L21.9324 5.2409L29.9146 0.632251C30.6051 0.233586 31.3956 0.233586 32.0862 0.632251L59.7949 16.6298Z" fill="#16519F"/>
<path d="M47.3324 59.8973L59.9301 52.6233C60.6206 52.2247 61.0163 51.54 61.0163 50.7426V18.7466L51.4445 24.273V41.7555C51.4445 42.4334 50.895 42.9829 50.2171 42.9829C49.8351 42.9829 49.4952 42.8085 49.2699 42.5352C48.8749 42.1208 48.4814 41.7053 48.0891 41.2911L48.0882 41.2901L47.6586 40.8367L46.2843 39.3851L42.902 46.4465C42.6111 47.0557 41.8804 47.3133 41.2721 47.0214C40.8333 46.8118 40.5776 46.374 40.5767 45.9185H40.5718V30.5508L32.2272 35.3681V45.9038C32.6895 45.992 33.1499 46.1301 33.6054 46.3191L40.7824 49.292C42.4946 50.0011 43.7572 51.2647 44.4663 52.976L47.3324 59.8973Z" fill="#16519F"/>
<path d="M0.983398 18.7466V50.7426C0.983398 51.54 1.37912 52.2247 2.06969 52.6233L14.6673 59.8973L17.5344 52.9769C18.2436 51.2647 19.5062 50.0021 21.2184 49.293L28.3953 46.3201C28.8498 46.132 29.3102 45.9929 29.7735 45.9048V35.369L0.983398 18.7466Z" fill="#16519F"/>
<path d="M11.2703 11.3962L11.1685 11.5716L39.8626 28.1382L30.9999 33.2552L2.20486 16.6298L11.2703 11.3962Z" fill="#16519F"/>
<path d="M19.6942 6.53289L19.5914 6.71214L48.2826 23.2768L45.3979 24.942L45.3806 24.951C45.3635 24.9598 45.3461 24.9688 45.3293 24.9783L45.2901 25.0008L45.2911 25.0028C42.3441 26.7041 42.8574 26.4064 43.1724 26.2238C43.3916 26.0967 43.5147 26.0253 42.3075 26.7228L13.5164 10.0993L19.6942 6.53289Z" fill="#16519F"/>
<path d="M48.9898 25.6904V30.0189V38.6818C48.4549 38.117 47.9207 37.551 47.3865 36.9853L47.3852 36.9839L47.384 36.9825L47.3741 36.9721L47.3731 36.9711L47.3722 36.9701L46.8436 36.4103C46.3803 35.9176 45.6055 35.8941 45.1128 36.3574C44.9796 36.4828 44.8807 36.6307 44.817 36.7894L43.0264 40.5272V29.1363C46.6899 27.0206 46.6928 27.0176 46.2912 27.2488L46.5175 27.1185L46.5184 27.1205L46.5576 27.098C46.5772 27.0872 46.5958 27.0745 46.6144 27.0627L46.6154 27.0617L48.9898 25.6904Z" fill="#16519F"/>
<path fill-rule="evenodd" clip-rule="evenodd" d="M31.6483 52.5763L37.7419 55.1005C38.1935 55.2876 38.4717 55.5648 38.6588 56.0174L41.183 62.111C41.3701 62.5625 41.3701 62.9553 41.183 63.4069L38.6588 69.5005C38.4717 69.9521 38.1945 70.2302 37.7419 70.4173L31.6483 72.9416C31.1968 73.1286 30.804 73.1286 30.3524 72.9416L24.2588 70.4173C23.8072 70.2302 23.5291 69.953 23.342 69.5005L20.8177 63.4069C20.6307 62.9553 20.6307 62.5625 20.8177 62.111L23.342 56.0174C23.5291 55.5658 23.8063 55.2876 24.2588 55.1005L30.3524 52.5763C30.804 52.3892 31.1958 52.3892 31.6483 52.5763ZM24.7055 62.4068C24.3137 62.9583 24.443 63.7223 24.9934 64.1141L29.2211 67.1144C29.7236 67.4719 30.4043 67.3955 30.8177 66.9606L37.1846 60.2421C37.6508 59.7523 37.6312 58.9775 37.1415 58.5112C36.6517 58.045 35.8769 58.0646 35.4107 58.5543L29.7725 64.503L26.4128 62.1188C25.8613 61.727 25.0973 61.8563 24.7055 62.4068Z" fill="#FF7E74"/>
<path fill-rule="evenodd" clip-rule="evenodd" d="M32.8002 48.2625L36.3882 49.7484L39.9762 51.2344C41.1732 51.73 42.0264 52.5832 42.522 53.7801L44.0079 57.3681L45.4939 60.9561C45.9895 62.1531 45.9895 63.3599 45.4939 64.5568L44.0079 68.1448L42.522 71.7328C42.0264 72.9298 41.1732 73.783 39.9762 74.2786L36.3882 75.7645L32.8002 77.2505C31.6033 77.7461 30.3965 77.7461 29.2005 77.2505L25.6125 75.7645L22.0245 74.2786C20.8275 73.783 19.9744 72.9298 19.4787 71.7328L17.9928 68.1448L16.5069 64.5568C16.0112 63.3599 16.0112 62.1531 16.5069 60.9561L17.9928 57.3681L19.4787 53.7801C19.9744 52.5832 20.8275 51.73 22.0245 51.2344L25.6125 49.7484L29.2005 48.2625C30.3965 47.7669 31.6033 47.7669 32.8002 48.2625ZM38.4129 53.4814L32.3193 50.9572C31.4377 50.5918 30.563 50.5918 29.6814 50.9572L23.5878 53.4814C22.7063 53.8468 22.0882 54.4648 21.7228 55.3464L19.1986 61.44C18.8332 62.3216 18.8332 63.1963 19.1986 64.0779L21.7228 70.1715C22.0872 71.053 22.7063 71.6711 23.5878 72.0365L29.6814 74.5607C30.563 74.9261 31.4377 74.9261 32.3193 74.5607L38.4129 72.0365C39.2945 71.6721 39.9125 71.053 40.2779 70.1715L42.8021 64.0779C43.1675 63.1963 43.1675 62.3216 42.8021 61.44L40.2779 55.3464C39.9135 54.4648 39.2945 53.8468 38.4129 53.4814Z" fill="#FF7E74"/>
<path d="M37.0083 77.4082L41.1027 84.4999L42.5817 80.6612L44.0608 76.8234L48.1249 77.4611L52.1889 78.0987L46.1306 67.6061L44.1431 72.4058C43.4692 74.0318 42.2742 75.2268 40.6482 75.9007L37.0083 77.4082Z" fill="#FF7E74"/>
<path d="M24.9915 77.4082L20.8971 84.4999L19.418 80.6612L17.9389 76.8224L13.8749 77.4611L9.81085 78.0987L15.8692 67.6051L17.8576 72.4048C18.5315 74.0308 19.7256 75.2258 21.3526 75.8997L24.9915 77.4082Z" fill="#FF7E74"/>
</svg>
